# xmcd CD database file
#
# Track frame offsets:
#	150
#	25823
#	42240
#	51315
#	68392
#	82098
#	96054
#	111009
#	128524
#	141689
#	164360
#
# Disc length: 2373 seconds
#
# Revision: 2
# Processed by: cddbd v1.5.2PL0 Copyright (c) Steve Scherf et al.
# Submitted via: CDex 1.51
#
DISCID=9109430b
DTITLE=Matt Murphy - The Blues Don't Bother Me!
DYEAR=1900
DGENRE=Blues
TTITLE0=Ungrateful Woman
TTITLE1=The Blues Don't Bother Me
TTITLE2=Some Sanctified Funk
TTITLE3=I Can't Hang
TTITLE4=I Can Cry On My Own
TTITLE5=Strut Your Stuff
TTITLE6=Bye Bye Texas
TTITLE7=It's Been A Long Long Time
TTITLE8=We're Gonna Have A Party
TTITLE9=Bip Bop
TTITLE10=I Ain't Got No Time
EXTD=
EXTT0=
EXTT1=
EXTT2=
EXTT3=
EXTT4=
EXTT5=
EXTT6=
EXTT7=
EXTT8=
EXTT9=
EXTT10=
PLAYORDER=
